<?xml version="1.0" standalone="no"?>
<!DOCTYPE svg PUBLIC "-//W3C//DTD SVG 20010904//EN"
 "http://www.w3.org/TR/2001/REC-SVG-20010904/DTD/svg10.dtd">
<svg version="1.0" xmlns="http://www.w3.org/2000/svg"
 width="512.000000pt" height="512.000000pt" viewBox="0 0 512.000000 512.000000"
 preserveAspectRatio="xMidYMid meet">

<g transform="translate(0.000000,512.000000) scale(0.100000,-0.100000)"
fill="#000000" stroke="none">
<path d="M2350 4435 c-662 -91 -1190 -585 -1331 -1243 -26 -127 -36 -366 -19
-498 34 -275 132 -522 300 -756 128 -179 377 -382 593 -483 53 -25 97 -47 97
-50 0 -3 -19 -80 -41 -170 l-41 -165 -102 0 c-68 -1 -107 -5 -119 -14 -22 -17
-147 -287 -147 -319 0 -13 10 -33 23 -45 l23 -22 971 0 c966 0 970 0 997 21
16 12 26 30 26 45 0 33 -124 303 -147 320 -12 9 -51 13 -119 14 l-102 0 -41
165 c-22 90 -41 167 -41 170 0 3 44 25 97 50 448 209 766 615 875 1118 19 87
22 132 22 307 0 232 -14 323 -80 511 -246 707 -957 1145 -1694 1044z m332
-131 l37 -6 -77 -154 c-42 -85 -79 -154 -82 -154 -3 0 -40 69 -82 154 l-77
155 27 4 c45 7 214 7 254 1z m-394 -99 c17 -35 28 -66 24 -68 -4 -3 -24 -7
-45 -11 -64 -12 -188 -56 -272 -98 -379 -189 -648 -556 -704 -962 -77 -555
205 -1091 705 -1340 178 -88 357 -129 564 -129 522 0 980 306 1185 792 111
262 126 596 39 872 -78 250 -248 490 -459 647 -122 91 -348 195 -472 218 -21
4 -41 8 -45 11 -4 2 7 33 25 69 32 66 32 66 68 60 118 -19 312 -105 464 -207
336 -224 561 -592 616 -1006 14 -107 6 -347 -16 -453 -53 -261 -185 -515 -367
-705 -200 -210 -423 -339 -715 -413 -101 -25 -121 -27 -323 -27 -201 0 -222 2
-323 28 -432 109 -767 374 -960 762 -95 192 -135 356 -144 585 -4 130 -2 175
16 278 79 462 361 844 776 1051 91 45 273 110 310 111 16 0 29 -16 53 -65z
m150 -300 l52 -105 0 -354 c0 -324 -1 -354 -17 -360 -13 -5 -96 73 -344 320
l-327 327 46 39 c62 52 179 121 271 159 58 24 229 75 261 79 3 0 29 -47 58
-105z m442 68 c145 -41 352 -153 414 -222 l20 -22 -325 -325 c-246 -246 -329
-323 -342 -318 -16 6 -17 36 -17 360 l0 354 52 104 c60 120 41 114 198 69z
m-848 -670 c198 -198 324 -331 321 -340 -4 -11 -90 -13 -470 -13 l-465 0 7 63
c20 177 109 402 216 544 30 40 56 73 59 73 3 0 152 -147 332 -327z m1474 215
c97 -146 170 -341 189 -505 l7 -63 -465 0 c-363 0 -466 3 -470 13 -3 6 142
159 321 339 l326 327 24 -22 c13 -12 44 -52 68 -89z m-889 -580 c31 -34 36
-63 18 -97 -20 -40 -49 -54 -91 -46 -64 12 -89 92 -44 140 31 33 88 34 117 3z
m-268 -146 c8 -16 -40 -68 -319 -347 l-328 -328 -58 79 c-73 97 -122 192 -163
308 -30 83 -61 230 -61 282 l0 24 460 0 c434 0 460 -1 469 -18z m1351 -6 c0
-52 -31 -199 -61 -282 -41 -116 -90 -211 -163 -308 l-58 -79 -328 328 c-279
279 -327 331 -319 347 9 17 35 18 469 18 l460 0 0 -24z m-1212 -585 l2 -464
-67 6 c-191 19 -431 121 -588 251 l-30 25 325 326 c186 186 331 324 340 323
13 -3 15 -64 18 -467z m502 143 l325 -325 -30 -25 c-157 -130 -397 -232 -587
-250 l-68 -7 0 460 c0 253 3 463 7 466 3 4 11 7 17 7 6 0 157 -146 336 -326z
m-754 -1005 c63 -14 140 -22 264 -26 181 -6 283 3 417 34 40 9 75 15 77 12 2
-2 19 -68 38 -146 l35 -143 -507 0 -507 0 36 145 c19 80 40 145 46 145 6 0 51
-9 101 -21z m1137 -464 c15 -31 27 -58 27 -60 0 -3 -378 -5 -840 -5 -462 0
-840 2 -840 5 0 2 12 29 27 60 l27 55 786 0 786 0 27 -55z"/>
</g>
</svg>
